<mxfile host="Electron" agent="Mozilla/5.0 (Windows NT 10.0; Win64; x64) AppleWebKit/537.36 (KHTML, like Gecko) draw.io/24.7.17 Chrome/128.0.6613.36 Electron/32.0.1 Safari/537.36" version="24.7.17">
  <diagram name="Page-1" id="HptBgVxb4dT7g-W1xDBT">
    <mxGraphModel dx="1021" dy="1675" grid="1" gridSize="10" guides="1" tooltips="1" connect="1" arrows="1" fold="1" page="1" pageScale="1" pageWidth="827" pageHeight="1169" math="0" shadow="0">
      <root>
        <mxCell id="0" />
        <mxCell id="1" parent="0" />
        <mxCell id="XBGz0PyTHQzlEWYFrbK--1" value="&lt;div&gt;&lt;br&gt;&lt;/div&gt;" style="text;html=1;align=center;verticalAlign=middle;resizable=0;points=[];autosize=1;strokeColor=none;fillColor=none;" vertex="1" parent="1">
          <mxGeometry x="40" y="68" width="20" height="30" as="geometry" />
        </mxCell>
        <mxCell id="XBGz0PyTHQzlEWYFrbK--2" value="&lt;span style=&quot;text-wrap: nowrap;&quot;&gt;Réception des instructions du maître d’hôtel&lt;/span&gt;" style="rounded=1;whiteSpace=wrap;html=1;fillColor=#A9C4EB;" vertex="1" parent="1">
          <mxGeometry x="430" y="-140" width="250" height="40" as="geometry" />
        </mxCell>
        <mxCell id="XBGz0PyTHQzlEWYFrbK--3" value="&lt;span style=&quot;text-wrap: nowrap;&quot;&gt;Accompagner les clients à leurs tables&lt;/span&gt;" style="rounded=1;whiteSpace=wrap;html=1;fillColor=#A9C4EB;" vertex="1" parent="1">
          <mxGeometry x="440" y="-70" width="240" height="60" as="geometry" />
        </mxCell>
        <mxCell id="XBGz0PyTHQzlEWYFrbK--4" value="&lt;span style=&quot;text-wrap: nowrap;&quot;&gt;Distribuer les cartes et prendre les commandes&lt;/span&gt;" style="rounded=1;whiteSpace=wrap;html=1;fillColor=#A9C4EB;" vertex="1" parent="1">
          <mxGeometry x="430" y="20" width="260" height="50" as="geometry" />
        </mxCell>
        <mxCell id="XBGz0PyTHQzlEWYFrbK--5" value="&lt;span style=&quot;text-wrap: nowrap;&quot;&gt;Les commandes sont-elles claires ?&lt;/span&gt;" style="rounded=1;whiteSpace=wrap;html=1;fillColor=#A9C4EB;" vertex="1" parent="1">
          <mxGeometry x="455" y="100" width="210" height="30" as="geometry" />
        </mxCell>
        <mxCell id="XBGz0PyTHQzlEWYFrbK--7" value="" style="rhombus;whiteSpace=wrap;html=1;" vertex="1" parent="1">
          <mxGeometry x="550" y="160" width="20" height="30" as="geometry" />
        </mxCell>
        <mxCell id="XBGz0PyTHQzlEWYFrbK--8" value="Transmission des commandes à la cuisine" style="rounded=1;whiteSpace=wrap;html=1;fillColor=#A9C4EB;" vertex="1" parent="1">
          <mxGeometry x="390" y="210" width="120" height="50" as="geometry" />
        </mxCell>
        <mxCell id="XBGz0PyTHQzlEWYFrbK--9" value="Clarification auprès des clients" style="rounded=1;whiteSpace=wrap;html=1;fillColor=#A9C4EB;" vertex="1" parent="1">
          <mxGeometry x="600" y="210" width="120" height="50" as="geometry" />
        </mxCell>
        <mxCell id="XBGz0PyTHQzlEWYFrbK--10" value="Surveillance du service dans son carré" style="rounded=1;whiteSpace=wrap;html=1;fillColor=#A9C4EB;" vertex="1" parent="1">
          <mxGeometry x="360" y="298" width="200" height="42" as="geometry" />
        </mxCell>
        <mxCell id="XBGz0PyTHQzlEWYFrbK--11" value="Aider les autres carrés si nécessaire" style="rounded=1;whiteSpace=wrap;html=1;fillColor=#A9C4EB;" vertex="1" parent="1">
          <mxGeometry x="360" y="380" width="200" height="40" as="geometry" />
        </mxCell>
        <mxCell id="XBGz0PyTHQzlEWYFrbK--12" value="" style="ellipse;html=1;shape=endState;fillColor=#000000;strokeColor=#ff0000;" vertex="1" parent="1">
          <mxGeometry x="437.5" y="460" width="25" height="20" as="geometry" />
        </mxCell>
        <mxCell id="XBGz0PyTHQzlEWYFrbK--14" value="" style="ellipse;whiteSpace=wrap;html=1;aspect=fixed;fillColor=#000000;" vertex="1" parent="1">
          <mxGeometry x="545" y="-220" width="30" height="30" as="geometry" />
        </mxCell>
        <mxCell id="XBGz0PyTHQzlEWYFrbK--15" value="" style="endArrow=classic;html=1;rounded=0;" edge="1" parent="1">
          <mxGeometry width="50" height="50" relative="1" as="geometry">
            <mxPoint x="560" y="-200" as="sourcePoint" />
            <mxPoint x="560" y="-140" as="targetPoint" />
          </mxGeometry>
        </mxCell>
        <mxCell id="XBGz0PyTHQzlEWYFrbK--16" value="" style="endArrow=classic;html=1;rounded=0;entryX=0.5;entryY=0;entryDx=0;entryDy=0;" edge="1" parent="1" target="XBGz0PyTHQzlEWYFrbK--3">
          <mxGeometry width="50" height="50" relative="1" as="geometry">
            <mxPoint x="560" y="-100" as="sourcePoint" />
            <mxPoint x="610" y="-150" as="targetPoint" />
          </mxGeometry>
        </mxCell>
        <mxCell id="XBGz0PyTHQzlEWYFrbK--17" value="" style="endArrow=classic;html=1;rounded=0;" edge="1" parent="1" target="XBGz0PyTHQzlEWYFrbK--4">
          <mxGeometry width="50" height="50" relative="1" as="geometry">
            <mxPoint x="560" y="-10" as="sourcePoint" />
            <mxPoint x="610" y="-60" as="targetPoint" />
          </mxGeometry>
        </mxCell>
        <mxCell id="XBGz0PyTHQzlEWYFrbK--18" value="" style="endArrow=classic;html=1;rounded=0;entryX=0.5;entryY=0;entryDx=0;entryDy=0;" edge="1" parent="1" target="XBGz0PyTHQzlEWYFrbK--5">
          <mxGeometry width="50" height="50" relative="1" as="geometry">
            <mxPoint x="560" y="70" as="sourcePoint" />
            <mxPoint x="610" y="20" as="targetPoint" />
          </mxGeometry>
        </mxCell>
        <mxCell id="XBGz0PyTHQzlEWYFrbK--19" value="" style="endArrow=classic;html=1;rounded=0;entryX=0.5;entryY=0;entryDx=0;entryDy=0;" edge="1" parent="1" target="XBGz0PyTHQzlEWYFrbK--7">
          <mxGeometry width="50" height="50" relative="1" as="geometry">
            <mxPoint x="560" y="130" as="sourcePoint" />
            <mxPoint x="610" y="80" as="targetPoint" />
          </mxGeometry>
        </mxCell>
        <mxCell id="XBGz0PyTHQzlEWYFrbK--20" value="" style="endArrow=none;html=1;rounded=0;exitX=1;exitY=0.5;exitDx=0;exitDy=0;" edge="1" parent="1" source="XBGz0PyTHQzlEWYFrbK--7">
          <mxGeometry width="50" height="50" relative="1" as="geometry">
            <mxPoint x="610" y="180" as="sourcePoint" />
            <mxPoint x="650" y="175" as="targetPoint" />
          </mxGeometry>
        </mxCell>
        <mxCell id="XBGz0PyTHQzlEWYFrbK--21" value="" style="endArrow=none;html=1;rounded=0;entryX=0;entryY=0.5;entryDx=0;entryDy=0;" edge="1" parent="1" target="XBGz0PyTHQzlEWYFrbK--7">
          <mxGeometry width="50" height="50" relative="1" as="geometry">
            <mxPoint x="460" y="175" as="sourcePoint" />
            <mxPoint x="380" y="150" as="targetPoint" />
          </mxGeometry>
        </mxCell>
        <mxCell id="XBGz0PyTHQzlEWYFrbK--22" value="" style="endArrow=classic;html=1;rounded=0;entryX=0.417;entryY=0;entryDx=0;entryDy=0;entryPerimeter=0;" edge="1" parent="1" target="XBGz0PyTHQzlEWYFrbK--9">
          <mxGeometry width="50" height="50" relative="1" as="geometry">
            <mxPoint x="650" y="170" as="sourcePoint" />
            <mxPoint x="700" y="120" as="targetPoint" />
          </mxGeometry>
        </mxCell>
        <mxCell id="XBGz0PyTHQzlEWYFrbK--23" value="" style="endArrow=classic;html=1;rounded=0;entryX=0.588;entryY=0;entryDx=0;entryDy=0;entryPerimeter=0;" edge="1" parent="1" target="XBGz0PyTHQzlEWYFrbK--8">
          <mxGeometry width="50" height="50" relative="1" as="geometry">
            <mxPoint x="460" y="170" as="sourcePoint" />
            <mxPoint x="510" y="120" as="targetPoint" />
          </mxGeometry>
        </mxCell>
        <mxCell id="XBGz0PyTHQzlEWYFrbK--24" value="" style="endArrow=classic;html=1;rounded=0;entryX=0.448;entryY=-0.036;entryDx=0;entryDy=0;entryPerimeter=0;" edge="1" parent="1" target="XBGz0PyTHQzlEWYFrbK--10">
          <mxGeometry width="50" height="50" relative="1" as="geometry">
            <mxPoint x="450" y="260" as="sourcePoint" />
            <mxPoint x="500" y="210" as="targetPoint" />
          </mxGeometry>
        </mxCell>
        <mxCell id="XBGz0PyTHQzlEWYFrbK--25" value="" style="endArrow=classic;html=1;rounded=0;entryX=0.445;entryY=0.025;entryDx=0;entryDy=0;entryPerimeter=0;" edge="1" parent="1" target="XBGz0PyTHQzlEWYFrbK--11">
          <mxGeometry width="50" height="50" relative="1" as="geometry">
            <mxPoint x="450" y="340" as="sourcePoint" />
            <mxPoint x="500" y="290" as="targetPoint" />
          </mxGeometry>
        </mxCell>
        <mxCell id="XBGz0PyTHQzlEWYFrbK--29" value="" style="endArrow=classic;html=1;rounded=0;entryX=0.5;entryY=0;entryDx=0;entryDy=0;" edge="1" parent="1" target="XBGz0PyTHQzlEWYFrbK--12">
          <mxGeometry width="50" height="50" relative="1" as="geometry">
            <mxPoint x="450" y="420" as="sourcePoint" />
            <mxPoint x="500" y="370" as="targetPoint" />
          </mxGeometry>
        </mxCell>
        <mxCell id="XBGz0PyTHQzlEWYFrbK--30" value="Oui" style="text;html=1;align=center;verticalAlign=middle;resizable=0;points=[];autosize=1;strokeColor=none;fillColor=none;" vertex="1" parent="1">
          <mxGeometry x="480" y="148" width="40" height="30" as="geometry" />
        </mxCell>
        <mxCell id="XBGz0PyTHQzlEWYFrbK--31" value="Non" style="text;html=1;align=center;verticalAlign=middle;resizable=0;points=[];autosize=1;strokeColor=none;fillColor=none;" vertex="1" parent="1">
          <mxGeometry x="575" y="148" width="50" height="30" as="geometry" />
        </mxCell>
      </root>
    </mxGraphModel>
  </diagram>
</mxfile>
